<?xml version="1.0" encoding="UTF-8" standalone="no"?>
<!-- Generator: Adobe Illustrator 15.0.0, SVG Export Plug-In . SVG Version: 6.00 Build 0)  -->

<svg
   xmlns:dc="http://purl.org/dc/elements/1.1/"
   xmlns:cc="http://creativecommons.org/ns#"
   xmlns:rdf="http://www.w3.org/1999/02/22-rdf-syntax-ns#"
   xmlns:svg="http://www.w3.org/2000/svg"
   xmlns="http://www.w3.org/2000/svg"
   xmlns:sodipodi="http://sodipodi.sourceforge.net/DTD/sodipodi-0.dtd"
   xmlns:inkscape="http://www.inkscape.org/namespaces/inkscape"
   version="1.1"
   id="Layer_1"
   x="0px"
   y="0px"
   width="60.847633"
   height="90.879349"
   viewBox="0 0 60.847632 90.879348"
   enable-background="new 0 0 550.768 147.804"
   xml:space="preserve"
   sodipodi:docname="medic-mobile-logo+name-white.svg"
   inkscape:version="0.92.3 (2405546, 2018-03-11)"><metadata
   id="metadata39"><rdf:RDF><cc:Work
       rdf:about=""><dc:format>image/svg+xml</dc:format><dc:type
         rdf:resource="http://purl.org/dc/dcmitype/StillImage" /><dc:title></dc:title></cc:Work></rdf:RDF></metadata><defs
   id="defs37" /><sodipodi:namedview
   pagecolor="#ffffff"
   bordercolor="#666666"
   borderopacity="1"
   objecttolerance="10"
   gridtolerance="10"
   guidetolerance="10"
   inkscape:pageopacity="0"
   inkscape:pageshadow="2"
   inkscape:window-width="1564"
   inkscape:window-height="1820"
   id="namedview35"
   showgrid="false"
   fit-margin-top="0"
   fit-margin-left="0"
   fit-margin-right="0"
   fit-margin-bottom="0"
   inkscape:zoom="1.6703948"
   inkscape:cx="271.37423"
   inkscape:cy="-171.19674"
   inkscape:window-x="1080"
   inkscape:window-y="34"
   inkscape:window-maximized="0"
   inkscape:current-layer="Layer_1" />
<path
   d="M 58.843605,27.087364 C 58.741088,24.147907 56.481852,25.08861 55.720391,25.334908 58.786866,23.430934 61.4278,17.830556 60.736618,15.411419 60.196955,13.523564 58.949345,14.170257 57.429003,15.644177 61.86817,5.6239734 55.294205,0.24539184 55.294205,0.25183943 54.163298,-0.49221273 53.357349,0.50845361 53.374757,1.9965579 53.603002,14.047753 44.793656,21.013732 35.173849,26.79013 27.940939,31.462055 25.3806,39.324894 24.494057,44.94655 c -0.221798,0.688603 -0.741474,0.361065 -0.99164,0.14765 l -5.562983,-6.308324 c -0.606718,-0.687959 -1.463603,-1.024523 -2.313396,-0.994864 -0.658299,0.02257 -1.312085,0.264351 -1.844656,0.733091 l -0.250812,0.221797 -0.0039,-0.0045 -0.0052,0.0045 -1.343678,-1.523566 C 11.78062,36.772292 11.238377,36.536311 10.71032,36.529863 10.301542,36.527263 9.9030813,36.662039 9.5865045,36.941864 L 8.8451054,37.59565 c -0.731157,0.644114 -0.7517893,1.815642 -0.046423,2.615788 l 1.3436786,1.523566 -9.14462052,8.065938 c -1.22117403,1.077393 -1.33723069,2.937523 -0.26048273,4.156763 L 32.421371,89.882397 c 0.604785,0.684734 1.455867,1.021943 2.302436,0.995508 0.661523,-0.01999 1.320467,-0.263061 1.855617,-0.735025 L 49.363065,78.866686 c 1.221174,-1.076748 1.335941,-2.938168 0.259838,-4.156763 L 38.901202,62.552346 c -0.0058,-0.01032 -0.0097,-0.0187 -0.01612,-0.02772 -0.393948,-0.627995 0.718261,-0.506136 0.718261,-0.506136 l 0.0019,-0.01161 c 1.726665,0.05803 3.015539,-0.342367 3.929807,-0.956822 1.387522,-0.932967 -0.190204,-1.620925 -0.434567,-2.298567 2.141245,1.030325 6.350233,0.152808 7.399257,-1.199897 0.818844,-1.05676 -0.5906,-1.499065 -1.936857,-1.801457 3.396592,-1.577726 6.107804,-3.155452 7.563026,-6.903437 0.852371,-2.194761 -1.493263,-2.260526 -3.83116,-1.375272 1.906553,-1.907842 3.821488,-4.512025 4.774442,-7.84543 1.079327,-3.775066 -0.329471,-5.675171 -3.371446,-3.128372 2.768597,-2.711857 5.254143,-6.30768 5.145824,-9.410261 z m -31.54678,28.604743 -11.044081,9.73973 c -0.333985,0.294011 -0.84399,0.262417 -1.13929,-0.07221 L 4.971392,53.860991 C 4.6760922,53.525716 4.7083302,53.015067 5.041026,52.719767 L 16.085107,42.97939 c 0.33463,-0.294655 0.845924,-0.261773 1.141223,0.07157 l 10.141418,11.50057 c 0.295945,0.33592 0.263062,0.845925 -0.07092,1.140579 z"
   id="path2"
   inkscape:connector-curvature="0"
   style="fill:#ffffff;stroke-width:0.64475924" />


</svg>